{
	"asset":{
		"generator":"Khronos glTF Blender I/O v4.0.44",
		"version":"2.0"
	},
	"scene":0,
	"scenes":[
		{
			"name":"Scene",
			"nodes":[
				0
			]
		}
	],
	"nodes":[
		{
			"mesh":0,
			"name":"Cube.019",
			"rotation":[
				0,
				1,
				0,
				0
			],
			"scale":[
				-3.482851266860962,
				-0.021441806107759476,
				-3.482851266860962
			],
			"translation":[
				0.1201210618019104,
				18.045259475708008,
				-0.47606131434440613
			]
		}
	],
	"meshes":[
		{
			"name":"Cube.019",
			"primitives":[
				{
					"attributes":{
						"POSITION":0,
						"NORMAL":1,
						"TEXCOORD_0":2
					},
					"indices":3
				},
				{
					"attributes":{
						"POSITION":4,
						"NORMAL":5,
						"TEXCOORD_0":6
					},
					"indices":7
				},
				{
					"attributes":{
						"POSITION":8,
						"NORMAL":9,
						"TEXCOORD_0":10
					},
					"indices":11
				}
			]
		}
	],
	"accessors":[
		{
			"bufferView":0,
			"componentType":5126,
			"count":24,
			"max":[
				0.9655107259750366,
				125.01083374023438,
				1.1366872787475586
			],
			"min":[
				-1.0344892740249634,
				123.01083374023438,
				-0.8633127808570862
			],
			"type":"VEC3"
		},
		{
			"bufferView":1,
			"componentType":5126,
			"count":24,
			"type":"VEC3"
		},
		{
			"bufferView":2,
			"componentType":5126,
			"count":24,
			"type":"VEC2"
		},
		{
			"bufferView":3,
			"componentType":5123,
			"count":36,
			"type":"SCALAR"
		},
		{
			"bufferView":4,
			"componentType":5126,
			"count":4226,
			"max":[
				0.38503241539001465,
				124.28207397460938,
				0.43290871381759644
			],
			"min":[
				-0.47070562839508057,
				-160.78323364257812,
				-0.6333512663841248
			],
			"type":"VEC3"
		},
		{
			"bufferView":5,
			"componentType":5126,
			"count":4226,
			"type":"VEC3"
		},
		{
			"bufferView":6,
			"componentType":5126,
			"count":4226,
			"type":"VEC2"
		},
		{
			"bufferView":7,
			"componentType":5123,
			"count":11262,
			"type":"SCALAR"
		},
		{
			"bufferView":8,
			"componentType":5126,
			"count":850,
			"max":[
				0.35970526933670044,
				122.56459045410156,
				0.4113695025444031
			],
			"min":[
				-0.3627172112464905,
				-95.05645751953125,
				-0.5564708113670349
			],
			"type":"VEC3"
		},
		{
			"bufferView":9,
			"componentType":5126,
			"count":850,
			"type":"VEC3"
		},
		{
			"bufferView":10,
			"componentType":5126,
			"count":850,
			"type":"VEC2"
		},
		{
			"bufferView":11,
			"componentType":5123,
			"count":2298,
			"type":"SCALAR"
		}
	],
	"bufferViews":[
		{
			"buffer":0,
			"byteLength":288,
			"byteOffset":0,
			"target":34962
		},
		{
			"buffer":0,
			"byteLength":288,
			"byteOffset":288,
			"target":34962
		},
		{
			"buffer":0,
			"byteLength":192,
			"byteOffset":576,
			"target":34962
		},
		{
			"buffer":0,
			"byteLength":72,
			"byteOffset":768,
			"target":34963
		},
		{
			"buffer":0,
			"byteLength":50712,
			"byteOffset":840,
			"target":34962
		},
		{
			"buffer":0,
			"byteLength":50712,
			"byteOffset":51552,
			"target":34962
		},
		{
			"buffer":0,
			"byteLength":33808,
			"byteOffset":102264,
			"target":34962
		},
		{
			"buffer":0,
			"byteLength":22524,
			"byteOffset":136072,
			"target":34963
		},
		{
			"buffer":0,
			"byteLength":10200,
			"byteOffset":158596,
			"target":34962
		},
		{
			"buffer":0,
			"byteLength":10200,
			"byteOffset":168796,
			"target":34962
		},
		{
			"buffer":0,
			"byteLength":6800,
			"byteOffset":178996,
			"target":34962
		},
		{
			"buffer":0,
			"byteLength":4596,
			"byteOffset":185796,
			"target":34963
		}
	],
	"buffers":[
		{
			"byteLength":190392,
			"uri":"city.bin"
		}
	]
}
