{
	"asset":{
		"generator":"Khronos glTF Blender I/O v3.6.27",
		"version":"2.0"
	},
	"scene":0,
	"scenes":[
		{
			"name":"Scene",
			"nodes":[
				0
			]
		}
	],
	"nodes":[
		{
			"mesh":0,
			"name":"Cube.019",
			"rotation":[
				0,
				1,
				0,
				0
			],
			"scale":[
				-3.482851266860962,
				-0.021441806107759476,
				-3.482851266860962
			],
			"translation":[
				0.1201210618019104,
				18.045259475708008,
				-0.47606131434440613
			]
		}
	],
	"materials":[
		{
			"doubleSided":true,
			"name":"Material.002",
			"pbrMetallicRoughness":{
				"baseColorFactor":[
					0.5809973478317261,
					0.6820618510246277,
					0.8003629446029663,
					1
				],
				"metallicFactor":0,
				"roughnessFactor":0.5
			}
		},
		{
			"doubleSided":true,
			"name":"Material.003",
			"pbrMetallicRoughness":{
				"baseColorFactor":[
					0.0462552048265934,
					0.35797327756881714,
					0.8005045056343079,
					1
				],
				"metallicFactor":0.5590550899505615,
				"roughnessFactor":0.17716535925865173
			}
		}
	],
	"meshes":[
		{
			"name":"Cube.019",
			"primitives":[
				{
					"attributes":{
						"POSITION":0,
						"NORMAL":1,
						"TEXCOORD_0":2
					},
					"indices":3,
					"material":0
				},
				{
					"attributes":{
						"POSITION":4,
						"NORMAL":5,
						"TEXCOORD_0":6
					},
					"indices":7,
					"material":1
				}
			]
		}
	],
	"accessors":[
		{
			"bufferView":0,
			"componentType":5126,
			"count":4226,
			"max":[
				0.38503241539001465,
				124.28207397460938,
				0.43290871381759644
			],
			"min":[
				-0.47070562839508057,
				-160.78323364257812,
				-0.6333512663841248
			],
			"type":"VEC3"
		},
		{
			"bufferView":1,
			"componentType":5126,
			"count":4226,
			"type":"VEC3"
		},
		{
			"bufferView":2,
			"componentType":5126,
			"count":4226,
			"type":"VEC2"
		},
		{
			"bufferView":3,
			"componentType":5123,
			"count":11262,
			"type":"SCALAR"
		},
		{
			"bufferView":4,
			"componentType":5126,
			"count":850,
			"max":[
				0.35970526933670044,
				122.56459045410156,
				0.4113695025444031
			],
			"min":[
				-0.3627172112464905,
				-95.05645751953125,
				-0.5564708113670349
			],
			"type":"VEC3"
		},
		{
			"bufferView":5,
			"componentType":5126,
			"count":850,
			"type":"VEC3"
		},
		{
			"bufferView":6,
			"componentType":5126,
			"count":850,
			"type":"VEC2"
		},
		{
			"bufferView":7,
			"componentType":5123,
			"count":2298,
			"type":"SCALAR"
		}
	],
	"bufferViews":[
		{
			"buffer":0,
			"byteLength":50712,
			"byteOffset":0,
			"target":34962
		},
		{
			"buffer":0,
			"byteLength":50712,
			"byteOffset":50712,
			"target":34962
		},
		{
			"buffer":0,
			"byteLength":33808,
			"byteOffset":101424,
			"target":34962
		},
		{
			"buffer":0,
			"byteLength":22524,
			"byteOffset":135232,
			"target":34963
		},
		{
			"buffer":0,
			"byteLength":10200,
			"byteOffset":157756,
			"target":34962
		},
		{
			"buffer":0,
			"byteLength":10200,
			"byteOffset":167956,
			"target":34962
		},
		{
			"buffer":0,
			"byteLength":6800,
			"byteOffset":178156,
			"target":34962
		},
		{
			"buffer":0,
			"byteLength":4596,
			"byteOffset":184956,
			"target":34963
		}
	],
	"buffers":[
		{
			"byteLength":189552,
			"uri":"data:application/octet-stream;base64,"
		}
	]
}
