{
	"asset":{
		"generator":"Khronos glTF Blender I/O v3.6.27",
		"version":"2.0"
	},
	"scene":0,
	"scenes":[
		{
			"name":"Scene",
			"nodes":[
				0
			]
		}
	],
	"nodes":[
		{
			"mesh":0,
			"name":"Cube",
			"rotation":[
				0.021954558789730072,
				-0.042083628475666046,
				0.005729031749069691,
				0.9988564252853394
			]
		}
	],
	"animations":[
		{
			"channels":[
				{
					"sampler":0,
					"target":{
						"node":0,
						"path":"translation"
					}
				},
				{
					"sampler":1,
					"target":{
						"node":0,
						"path":"rotation"
					}
				},
				{
					"sampler":2,
					"target":{
						"node":0,
						"path":"scale"
					}
				}
			],
			"name":"jumphigh",
			"samplers":[
				{
					"input":4,
					"interpolation":"LINEAR",
					"output":5
				},
				{
					"input":6,
					"interpolation":"STEP",
					"output":7
				},
				{
					"input":6,
					"interpolation":"STEP",
					"output":8
				}
			]
		},
		{
			"channels":[
				{
					"sampler":0,
					"target":{
						"node":0,
						"path":"translation"
					}
				},
				{
					"sampler":1,
					"target":{
						"node":0,
						"path":"rotation"
					}
				},
				{
					"sampler":2,
					"target":{
						"node":0,
						"path":"scale"
					}
				}
			],
			"name":"twist",
			"samplers":[
				{
					"input":9,
					"interpolation":"STEP",
					"output":10
				},
				{
					"input":11,
					"interpolation":"LINEAR",
					"output":12
				},
				{
					"input":9,
					"interpolation":"STEP",
					"output":13
				}
			]
		}
	],
	"materials":[
		{
			"doubleSided":true,
			"name":"Material",
			"pbrMetallicRoughness":{
				"baseColorFactor":[
					0.8000000715255737,
					0.059493884444236755,
					0.10853800922632217,
					1
				],
				"metallicFactor":0,
				"roughnessFactor":0.5
			}
		}
	],
	"meshes":[
		{
			"name":"Cube",
			"primitives":[
				{
					"attributes":{
						"POSITION":0,
						"NORMAL":1,
						"TEXCOORD_0":2
					},
					"indices":3,
					"material":0
				}
			]
		}
	],
	"accessors":[
		{
			"bufferView":0,
			"componentType":5126,
			"count":96,
			"max":[
				4.246847152709961,
				3.352064847946167,
				4.878691673278809
			],
			"min":[
				-1,
				-1,
				-1
			],
			"type":"VEC3"
		},
		{
			"bufferView":1,
			"componentType":5126,
			"count":96,
			"type":"VEC3"
		},
		{
			"bufferView":2,
			"componentType":5126,
			"count":96,
			"type":"VEC2"
		},
		{
			"bufferView":3,
			"componentType":5123,
			"count":180,
			"type":"SCALAR"
		},
		{
			"bufferView":4,
			"componentType":5126,
			"count":26,
			"max":[
				1.0833333333333333
			],
			"min":[
				0.041666666666666664
			],
			"type":"SCALAR"
		},
		{
			"bufferView":5,
			"componentType":5126,
			"count":26,
			"type":"VEC3"
		},
		{
			"bufferView":6,
			"componentType":5126,
			"count":2,
			"max":[
				1.0833333333333333
			],
			"min":[
				0.041666666666666664
			],
			"type":"SCALAR"
		},
		{
			"bufferView":7,
			"componentType":5126,
			"count":2,
			"type":"VEC4"
		},
		{
			"bufferView":8,
			"componentType":5126,
			"count":2,
			"type":"VEC3"
		},
		{
			"bufferView":9,
			"componentType":5126,
			"count":2,
			"max":[
				2.0833333333333335
			],
			"min":[
				0
			],
			"type":"SCALAR"
		},
		{
			"bufferView":10,
			"componentType":5126,
			"count":2,
			"type":"VEC3"
		},
		{
			"bufferView":11,
			"componentType":5126,
			"count":51,
			"max":[
				2.0833333333333335
			],
			"min":[
				0
			],
			"type":"SCALAR"
		},
		{
			"bufferView":12,
			"componentType":5126,
			"count":51,
			"type":"VEC4"
		},
		{
			"bufferView":13,
			"componentType":5126,
			"count":2,
			"type":"VEC3"
		}
	],
	"bufferViews":[
		{
			"buffer":0,
			"byteLength":1152,
			"byteOffset":0,
			"target":34962
		},
		{
			"buffer":0,
			"byteLength":1152,
			"byteOffset":1152,
			"target":34962
		},
		{
			"buffer":0,
			"byteLength":768,
			"byteOffset":2304,
			"target":34962
		},
		{
			"buffer":0,
			"byteLength":360,
			"byteOffset":3072,
			"target":34963
		},
		{
			"buffer":0,
			"byteLength":104,
			"byteOffset":3432
		},
		{
			"buffer":0,
			"byteLength":312,
			"byteOffset":3536
		},
		{
			"buffer":0,
			"byteLength":8,
			"byteOffset":3848
		},
		{
			"buffer":0,
			"byteLength":32,
			"byteOffset":3856
		},
		{
			"buffer":0,
			"byteLength":24,
			"byteOffset":3888
		},
		{
			"buffer":0,
			"byteLength":8,
			"byteOffset":3912
		},
		{
			"buffer":0,
			"byteLength":24,
			"byteOffset":3920
		},
		{
			"buffer":0,
			"byteLength":204,
			"byteOffset":3944
		},
		{
			"buffer":0,
			"byteLength":816,
			"byteOffset":4148
		},
		{
			"buffer":0,
			"byteLength":24,
			"byteOffset":4964
		}
	],
	"buffers":[
		{
			"byteLength":4988,
			"uri":"data:application/octet-stream;base64,"
		}
	]
}
